/* XPM */
static char * drmips_xpm[] = {
"32 32 422 2",
"  	c None",
". 	c #924646",
"+ 	c #914B4B",
"@ 	c #904D4D",
"# 	c #904C4C",
"$ 	c #904A4A",
"% 	c #924545",
"& 	c #8C4747",
"* 	c #905050",
"= 	c #965757",
"- 	c #9A5C5C",
"; 	c #9C5F5F",
"> 	c #9C5E5E",
", 	c #995B5B",
"' 	c #8F4E4E",
") 	c #8C4646",
"! 	c #8C4040",
"~ 	c #854242",
"{ 	c #955656",
"] 	c #BD8181",
"^ 	c #C78686",
"/ 	c #C78080",
"( 	c #C87C7C",
"_ 	c #C87A7A",
": 	c #C77A7A",
"< 	c #C77B7B",
"[ 	c #C67E7E",
"} 	c #C68484",
"| 	c #BD8080",
"1 	c #945454",
"2 	c #844040",
"3 	c #8B3F3F",
"4 	c #843D3D",
"5 	c #8E4F4F",
"6 	c #B87777",
"7 	c #CF8787",
"8 	c #C26E6E",
"9 	c #C16D6D",
"0 	c #C37070",
"a 	c #C37272",
"b 	c #C47373",
"c 	c #C16B6B",
"d 	c #C16C6C",
"e 	c #CE8585",
"f 	c #B87676",
"g 	c #8E4D4D",
"h 	c #833C3C",
"i 	c #7C3A3A",
"j 	c #A76969",
"k 	c #C37575",
"l 	c #C06969",
"m 	c #C57474",
"n 	c #C57777",
"o 	c #C67777",
"p 	c #C57575",
"q 	c #C26F6F",
"r 	c #BF6767",
"s 	c #C06767",
"t 	c #C27373",
"u 	c #A76767",
"v 	c #7C3939",
"w 	c #7B3838",
"x 	c #A46161",
"y 	c #C26B6B",
"z 	c #BD6262",
"A 	c #BF6868",
"B 	c #C37171",
"C 	c #C47575",
"D 	c #C77979",
"E 	c #C57878",
"F 	c #C06A6A",
"G 	c #BE6565",
"H 	c #BC5E5E",
"I 	c #C06868",
"J 	c #A35E5E",
"K 	c #7A3636",
"L 	c #7F3333",
"M 	c #A96666",
"N 	c #BE6262",
"O 	c #BC5F5F",
"P 	c #BD6565",
"Q 	c #C16E6E",
"R 	c #C47272",
"S 	c #C57676",
"T 	c #C87D7D",
"U 	c #C06B6B",
"V 	c #BE6666",
"W 	c #BC6161",
"X 	c #BA5C5C",
"Y 	c #A86464",
"Z 	c #803333",
"` 	c #884747",
" .	c #BA5D5D",
"..	c #B95B5B",
"+.	c #C97F7F",
"@.	c #C47474",
"#.	c #C36F6F",
"$.	c #BF6666",
"%.	c #BB5C5C",
"&.	c #B85757",
"*.	c #B95A5A",
"=.	c #864444",
"-.	c #743232",
";.	c #BD6767",
">.	c #B75454",
",.	c #BA5A5A",
"'.	c #BD6464",
").	c #C67979",
"!.	c #C87B7B",
"~.	c #C37373",
"{.	c #B85656",
"].	c #B65151",
"^.	c #BB6363",
"/.	c #743131",
"(.	c #A45858",
"_.	c #B54D4D",
":.	c #BB5E5E",
"<.	c #BD6363",
"[.	c #C26D6D",
"}.	c #BF6969",
"|.	c #BE6464",
"1.	c #BC6060",
"2.	c #BA5B5B",
"3.	c #B75656",
"4.	c #B34A4A",
"5.	c #A35656",
"6.	c #AE4E4E",
"7.	c #B44E4E",
"8.	c #B75353",
"9.	c #B85858",
"0.	c #BB5D5D",
"a.	c #BE6767",
"b.	c #B95959",
"c.	c #B75555",
"d.	c #B54F4F",
"e.	c #B34B4B",
"f.	c #AD4A4A",
"g.	c #8D3838",
"h.	c #B44C4C",
"i.	c #B34D4D",
"j.	c #BB5F5F",
"k.	c #BE6363",
"l.	c #B65252",
"m.	c #B24A4A",
"n.	c #B34949",
"o.	c #8A3535",
"p.	c #9A4545",
"q.	c #B74747",
"r.	c #B84C4C",
"s.	c #B95151",
"t.	c #B65353",
"u.	c #B95858",
"v.	c #C46B6B",
"w.	c #C26C6C",
"x.	c #C66F6F",
"y.	c #C36E6E",
"z.	c #C66D6D",
"A.	c #C56C6C",
"B.	c #C46969",
"C.	c #C16363",
"D.	c #C05F5F",
"E.	c #BE5B5B",
"F.	c #B85555",
"G.	c #B55151",
"H.	c #B74D4D",
"I.	c #B94949",
"J.	c #B54444",
"K.	c #9A4343",
"L.	c #9F4747",
"M.	c #552C2C",
"N.	c #5C3232",
"O.	c #683A3A",
"P.	c #A94E4E",
"Q.	c #BC5A5A",
"R.	c #BD5E5E",
"S.	c #BD6060",
"T.	c #AA5E5E",
"U.	c #6D5151",
"V.	c #B46565",
"W.	c #B36565",
"X.	c #6F5555",
"Y.	c #A96464",
"Z.	c #7D5858",
"`.	c #6E5252",
" +	c #765252",
".+	c #764D4D",
"++	c #664646",
"@+	c #6A4343",
"#+	c #944949",
"$+	c #B34E4E",
"%+	c #653636",
"&+	c #4E2C2C",
"*+	c #5E2C2C",
"=+	c #A04646",
"-+	c #AF4646",
";+	c #362222",
">+	c #994040",
",+	c #9E4545",
"'+	c #473232",
")+	c #AB4F4F",
"!+	c #423737",
"~+	c #6E4646",
"{+	c #4C4141",
"]+	c #9D5757",
"^+	c #3E4141",
"/+	c #875656",
"(+	c #7C5353",
"_+	c #4C4747",
":+	c #C06565",
"<+	c #BA6363",
"[+	c #514646",
"}+	c #AF5D5D",
"|+	c #BD5D5D",
"1+	c #854C4C",
"2+	c #714545",
"3+	c #493434",
"4+	c #843F3F",
"5+	c #442B2B",
"6+	c #B14343",
"7+	c #6A2D2D",
"8+	c #A64141",
"9+	c #AF3D3D",
"0+	c #362020",
"a+	c #BC4A4A",
"b+	c #492F2F",
"c+	c #AE4D4D",
"d+	c #934949",
"e+	c #634040",
"f+	c #BE5A5A",
"g+	c #BF5C5C",
"h+	c #574545",
"i+	c #564545",
"j+	c #594646",
"k+	c #C46161",
"l+	c #C56161",
"m+	c #4F4343",
"n+	c #BA5959",
"o+	c #8B4A4A",
"p+	c #493737",
"q+	c #583838",
"r+	c #643737",
"s+	c #B14848",
"t+	c #5E3030",
"u+	c #312121",
"v+	c #572727",
"w+	c #A73838",
"x+	c #A63838",
"y+	c #2A1B1B",
"z+	c #733131",
"A+	c #613030",
"B+	c #4A2D2D",
"C+	c #A84848",
"D+	c #643A3A",
"E+	c #734040",
"F+	c #AC5353",
"G+	c #3F3939",
"H+	c #904F4F",
"I+	c #8F4F4F",
"J+	c #473D3D",
"K+	c #AD5757",
"L+	c #945050",
"M+	c #403A3A",
"N+	c #8B4B4B",
"O+	c #B95555",
"P+	c #6D3F3F",
"Q+	c #4C3535",
"R+	c #904343",
"S+	c #B74949",
"T+	c #693333",
"U+	c #532A2A",
"V+	c #8C3636",
"W+	c #2E1A1A",
"X+	c #983232",
"Y+	c #9D3333",
"Z+	c #6D2A2A",
"`+	c #662B2B",
" @	c #773232",
".@	c #B74545",
"+@	c #9D4242",
"@@	c #6E3838",
"#@	c #733C3C",
"$@	c #7F4242",
"%@	c #9B4A4A",
"&@	c #784343",
"*@	c #A04F4F",
"=@	c #9B4D4D",
"-@	c #794545",
";@	c #9C4E4E",
">@	c #7B4545",
",@	c #764141",
"'@	c #B65050",
")@	c #7E3F3F",
"!@	c #723A3A",
"~@	c #8C3E3E",
"{@	c #B34646",
"]@	c #953B3B",
"^@	c #712F2F",
"/@	c #502323",
"(@	c #862E2E",
"_@	c #A53333",
":@	c #973030",
"<@	c #AB3737",
"[@	c #AE3B3B",
"}@	c #AF3E3E",
"|@	c #AE4040",
"1@	c #B24646",
"2@	c #B44949",
"3@	c #B44B4B",
"4@	c #B44D4D",
"5@	c #B64E4E",
"6@	c #B75151",
"7@	c #B75050",
"8@	c #B64F4F",
"9@	c #B44A4A",
"0@	c #B34747",
"a@	c #B14545",
"b@	c #AF4141",
"c@	c #AE3E3E",
"d@	c #AD3939",
"e@	c #AA3535",
"f@	c #972F2F",
"g@	c #A63434",
"h@	c #A93737",
"i@	c #AC3A3A",
"j@	c #AD3C3C",
"k@	c #AD3F3F",
"l@	c #B04444",
"m@	c #B14646",
"n@	c #B24848",
"o@	c #B24949",
"p@	c #B14747",
"q@	c #B04242",
"r@	c #AD3D3D",
"s@	c #AC3B3B",
"t@	c #AB3838",
"u@	c #A93636",
"v@	c #A63232",
"w@	c #9E2F2F",
"x@	c #A73333",
"y@	c #AA3636",
"z@	c #AC3939",
"A@	c #AF4242",
"B@	c #B04343",
"C@	c #B04646",
"D@	c #AD3E3E",
"E@	c #AC3C3C",
"F@	c #AA3838",
"G@	c #A93535",
"H@	c #A73232",
"I@	c #9E2E2E",
"J@	c #9B2C2C",
"K@	c #A33030",
"L@	c #AD3B3B",
"M@	c #AE3F3F",
"N@	c #AF4040",
"O@	c #AB3939",
"P@	c #AB3636",
"Q@	c #A93434",
"R@	c #A32F2F",
"S@	c #9B2B2B",
"T@	c #9F2E2E",
"U@	c #AC3D3D",
"V@	c #AA3737",
"W@	c #A83232",
"X@	c #A63131",
"Y@	c #A32E2E",
"Z@	c #9F2D2D",
"`@	c #822323",
" #	c #9D2B2B",
".#	c #A22F2F",
"+#	c #A53030",
"@#	c #A83333",
"##	c #A93333",
"$#	c #A73131",
"%#	c #A52F2F",
"&#	c #A22E2E",
"*#	c #9D2A2A",
"=#	c #822222",
"-#	c #912727",
";#	c #9C2A2A",
">#	c #A12C2C",
",#	c #A63030",
"'#	c #A83131",
")#	c #A62F2F",
"!#	c #A02C2C",
"~#	c #9C2929",
"{#	c #912626",
"]#	c #902626",
"^#	c #982929",
"/#	c #A52E2E",
"(#	c #A73030",
"_#	c #A42E2E",
":#	c #A32D2D",
"<#	c #A02B2B",
"[#	c #982828",
"}#	c #912525",
"|#	c #852222",
"1#	c #962727",
"2#	c #982727",
"3#	c #9E2B2B",
"4#	c #A22C2C",
"5#	c #A22D2D",
"6#	c #9E2A2A",
"7#	c #972626",
"8#	c #862222",
"9#	c #731E1E",
"0#	c #8B2323",
"a#	c #922525",
"b#	c #962626",
"c#	c #992828",
"d#	c #9B2828",
"e#	c #9C2828",
"f#	c #992727",
"g#	c #952626",
"h#	c #822121",
"i#	c #902525",
"j#	c #902424",
"k#	c #832121",
"l#	c #4B1313",
"m#	c #751E1E",
"n#	c #812121",
"o#	c #862121",
"                                                                ",
"                          . + @ # $ %                           ",
"                      & * = - ; > , = ' )                       ",
"                ! ~ { ] ^ / ( _ : < [ } | 1 2 3                 ",
"              4 5 6 7 8 9 0 a b b a 8 c d e f g h               ",
"            i j k c l 8 a m n o o p b q d r s t u v             ",
"          w x y z A d B C n D : : E p a 8 F G H I J K           ",
"        L M N O P l Q R S D ( T T : o b q U V W X O Y Z         ",
"        `  ...O P l Q R S D T +.T : o @.#.U $.W %.&.*.=.        ",
"      -.;.>.,.O '.I Q a C ).!.T ( D n ~.q F V W %.{.].^./.      ",
"      (._.>.*.:.<.A c 0 @.S ).D D n m B [.}.|.1.2.3.].4.5.      ",
"      6.7.8.9.0.W V F 8 B @.C S S C a q c a.z :.b.c.d.e.f.      ",
"    g.h.i.].3.2.j.k.r U 8 0 a R R B 8 d I |.W X 9.l.7.m.n.o.    ",
"    p.q.r.s.t.u.%.1.'.s v.w.8 x.y.z.A.B.G C.D.E.F.G.H.I.J.K.    ",
"    L.M.N.O.P.F.Q.R.S.T.U.V.W.X.Y.Z.`. +z .+++@+#+$+%+&+*+=+    ",
"    -+;+>+,+'+)+!+~+{+]+^+/+(+_+:+<+[+}+|+1+2+8.3+4+5+6+7+8+    ",
"    9+0+8+a+b+c+d+e+f+g+{+h+i+j+k+l+m+..n+o+p+q+r+s+t+u+v+w+    ",
"    x+y+z+A+B+C+D+E+$ F+G+H+I+J+K+L+M+N+O+P+Q+R+S+T+U+V+W+X+    ",
"    Y+Z+`+ @.@+@@@#@$@%@&@*@=@-@;@>@>@,@'@)@!@~@{@]@^@/@(@_@    ",
"    :@<@[@}@|@6+1@2@3@4@5@'@'@6@].7@8@_.e.9@0@a@b@c@[@d@e@f@    ",
"      g@h@i@j@k@b@l@m@n@o@4.4.e.e.4.m.n@p@l@q@|@r@s@t@u@v@      ",
"      w@x@y@z@s@r@|@A@B@l@C@m@p@p@C@l@l@A@b@D@E@i@F@G@H@I@      ",
"      J@K@x@u@t@i@L@D@M@N@N@b@b@b@N@N@M@D@j@s@O@P@Q@H@R@S@      ",
"        T@K@H@Q@y@t@O@i@E@E@r@r@r@U@E@s@O@t@V@e@W@X@Y@Z@        ",
"        `@ #.#+#@#Q@y@P@<@t@t@t@t@t@<@P@y@e@##$#%#&#*#=#        ",
"          -#;#>#R@,#'#@###Q@G@G@G@Q@####W@$#)#Y@!#~#{#          ",
"            ]#^#*#!#Y@/#,#(#$#$#$#$#(#,#_#:#<#*#[#}#            ",
"              |#1#2#;#3#>#4#5#:#:#5#>#<#6#~#2#7#8#              ",
"                9#0#a#b#2#c#d#d#e#d#f#2#g#a#0#9#                ",
"                      h#}#}#i#a#a#j#}#}#k#                      ",
"                        l#m#n#8#o#n#m#l#                        ",
"                                                                "};
